<svg width="99" height="76" viewBox="0 0 99 76" fill="none" xmlns="http://www.w3.org/2000/svg">
<circle cx="67.2117" cy="46.8128" r="7.80299" stroke="#5DCBDC" stroke-width="5.202" stroke-linecap="round" stroke-linejoin="round"/>
<path d="M49.0052 28.606C47.5687 28.606 46.4042 29.7706 46.4042 31.207C46.4042 32.6435 47.5687 33.808 49.0052 33.808V28.606ZM67.2122 26.0051C68.6487 26.0051 69.8132 24.8405 69.8132 23.4041C69.8132 21.9676 68.6487 20.8031 67.2122 20.8031V26.0051ZM93.2222 41.611C93.2222 40.1745 92.0577 39.01 90.6212 39.01C89.1847 39.01 88.0202 40.1745 88.0202 41.611H93.2222ZM49.0052 33.808C50.4417 33.808 51.6062 32.6435 51.6062 31.207C51.6062 29.7705 50.4417 28.606 49.0052 28.606V33.808ZM49.0052 33.808H54.2072V28.606H49.0052V33.808ZM54.2072 33.808C58.5167 33.808 62.0102 30.3145 62.0102 26.0051H56.8082C56.8082 27.4415 55.6437 28.606 54.2072 28.606V33.808ZM62.0102 26.0051V20.8031C59.1372 20.8031 56.8082 23.1321 56.8082 26.0051H62.0102ZM62.0102 26.0051H67.2122V20.8031H62.0102V26.0051ZM88.0202 41.611V59.818H93.2222V41.611H88.0202ZM88.0202 59.818C88.0202 61.2545 86.8557 62.419 85.4192 62.419V67.621C89.7287 67.621 93.2222 64.1275 93.2222 59.818H88.0202ZM85.4192 62.419H49.0052V67.621H85.4192V62.419ZM49.0052 62.419C47.5687 62.419 46.4042 61.2545 46.4042 59.818H41.2022C41.2022 64.1275 44.6957 67.621 49.0052 67.621V62.419ZM46.4042 59.818V36.409H41.2022V59.818H46.4042ZM46.4042 36.409C46.4042 34.9725 47.5687 33.808 49.0052 33.808V28.606C44.6957 28.606 41.2022 32.0995 41.2022 36.409H46.4042Z" fill="#5DCBDC"/>
<path d="M75.0146 28.6059H90.6206" stroke="#5DCBDC" stroke-width="5.202" stroke-linecap="round" stroke-linejoin="round"/>
<path d="M82.8181 20.803V36.409" stroke="#5DCBDC" stroke-width="5.202" stroke-linecap="round" stroke-linejoin="round"/>
<path d="M7.80273 54.621V44.217C7.80273 38.471 12.4608 33.813 18.2067 33.813C23.9527 33.813 28.6107 38.471 28.6107 44.217C28.6107 49.9629 23.9527 54.621 18.2067 54.621H7.80273" stroke="#5DCBDC" stroke-width="5.202" stroke-linecap="round" stroke-linejoin="round"/>
<path d="M54.6209 7.80298C39.4977 9.87155 26.7205 20.0534 21.3281 34.3332" stroke="#5DCBDC" stroke-width="5.202" stroke-linecap="round" stroke-linejoin="round"/>
<path d="M54.621 7.80298C52.5524 22.9262 42.3706 35.7034 28.0908 41.0958" stroke="#5DCBDC" stroke-width="5.202" stroke-linecap="round" stroke-linejoin="round"/>
<path d="M27.5708 23.4089C32.625 25.7417 36.6824 29.7992 39.0152 34.8533" stroke="#5DCBDC" stroke-width="5.202" stroke-linecap="round" stroke-linejoin="round"/>
</svg>
