<svg width="91" height="91" viewBox="0 0 91 91" fill="none" xmlns="http://www.w3.org/2000/svg">
<path d="M85.2221 23.4089L59.2121 13.0049L33.2021 23.4089L59.2121 33.8129L85.2221 23.4089V39.0149" stroke="#5DCBDC" stroke-width="5.202" stroke-linecap="round" stroke-linejoin="round"/>
<path d="M43.606 27.5706V41.6159C43.606 45.9254 50.593 49.4189 59.2119 49.4189C67.8309 49.4189 74.8179 45.9254 74.8179 41.6159V27.5706" stroke="#5DCBDC" stroke-width="5.202" stroke-linecap="round" stroke-linejoin="round"/>
<path d="M7.80322 56.6108C6.36673 56.6108 5.20222 57.7753 5.20222 59.2118C5.20222 60.6483 6.36673 61.8128 7.80322 61.8128V56.6108ZM10.4042 61.8128C11.8407 61.8128 13.0052 60.6483 13.0052 59.2118C13.0052 57.7753 11.8407 56.6108 10.4042 56.6108V61.8128ZM33.8134 35.803C33.8134 34.3665 32.6489 33.202 31.2124 33.202C29.7759 33.202 28.6114 34.3665 28.6114 35.803H33.8134ZM28.6114 38.404C28.6114 39.8405 29.7759 41.005 31.2124 41.005C32.6489 41.005 33.8134 39.8405 33.8134 38.404H28.6114ZM52.0199 56.6108C50.5834 56.6108 49.4189 57.7753 49.4189 59.2118C49.4189 60.6483 50.5834 61.8128 52.0199 61.8128V56.6108ZM54.6209 61.8128C56.0574 61.8128 57.2219 60.6483 57.2219 59.2118C57.2219 57.7753 56.0574 56.6108 54.6209 56.6108V61.8128ZM16.405 40.7264C15.3892 39.7106 13.7424 39.7106 12.7266 40.7264C11.7109 41.7421 11.7109 43.389 12.7266 44.4048L16.405 40.7264ZM14.5473 46.2254C15.5631 47.2412 17.2099 47.2412 18.2257 46.2254C19.2414 45.2097 19.2414 43.5628 18.2257 42.5471L14.5473 46.2254ZM7.80322 61.8128H10.4042V56.6108H7.80322V61.8128ZM28.6114 35.803V38.404H33.8134V35.803H28.6114ZM52.0199 61.8128H54.6209V56.6108H52.0199V61.8128ZM12.7266 44.4048L14.5473 46.2254L18.2257 42.5471L16.405 40.7264L12.7266 44.4048Z" fill="#5DCBDC"/>
<path d="M23.4089 69.6158C18.9307 66.2571 17.1041 60.4097 18.8743 55.0992C20.6444 49.7888 25.6141 46.2068 31.2119 46.2068C36.8096 46.2068 41.7793 49.7888 43.5495 55.0992C45.3197 60.4097 43.4931 66.2571 39.0149 69.6158C36.9553 71.6545 35.9895 74.552 36.4139 77.4188C36.4139 80.2917 34.0849 82.6208 31.2119 82.6208C28.3389 82.6208 26.0099 80.2917 26.0099 77.4188C26.4343 74.552 25.4685 71.6545 23.4089 69.6158" stroke="#5DCBDC" stroke-width="5.202" stroke-linecap="round" stroke-linejoin="round"/>
<path d="M25.2295 72.217H37.1941" stroke="#5DCBDC" stroke-width="5.202" stroke-linecap="round" stroke-linejoin="round"/>
</svg>
