<svg width="99" height="76" viewBox="0 0 99 76" fill="none" xmlns="http://www.w3.org/2000/svg">
<circle cx="67.2121" cy="46.8128" r="7.80299" stroke="#5DCBDC" stroke-width="5.202" stroke-linecap="round" stroke-linejoin="round"/>
<path d="M49.0049 28.606C47.5685 28.606 46.4039 29.7706 46.4039 31.207C46.4039 32.6435 47.5685 33.808 49.0049 33.808V28.606ZM67.2119 26.0051C68.6484 26.0051 69.8129 24.8405 69.8129 23.4041C69.8129 21.9676 68.6484 20.8031 67.2119 20.8031V26.0051ZM93.2219 41.611C93.2219 40.1745 92.0574 39.01 90.6209 39.01C89.1845 39.01 88.0199 40.1745 88.0199 41.611H93.2219ZM49.005 33.808C50.4415 33.808 51.606 32.6435 51.606 31.207C51.606 29.7705 50.4415 28.606 49.005 28.606V33.808ZM49.0049 33.808H54.2069V28.606H49.0049V33.808ZM54.2069 33.808C58.5164 33.808 62.0099 30.3145 62.0099 26.0051H56.8079C56.8079 27.4415 55.6434 28.606 54.2069 28.606V33.808ZM62.0099 26.0051V20.8031C59.137 20.8031 56.8079 23.1321 56.8079 26.0051H62.0099ZM62.0099 26.0051H67.2119V20.8031H62.0099V26.0051ZM88.0199 41.611V59.818H93.2219V41.611H88.0199ZM88.0199 59.818C88.0199 61.2545 86.8554 62.419 85.4189 62.419V67.621C89.7284 67.621 93.2219 64.1275 93.2219 59.818H88.0199ZM85.4189 62.419H49.005V67.621H85.4189V62.419ZM49.005 62.419C47.5685 62.419 46.404 61.2545 46.404 59.818H41.202C41.202 64.1275 44.6955 67.621 49.005 67.621V62.419ZM46.404 59.818V36.409H41.202V59.818H46.404ZM46.404 36.409C46.404 34.9725 47.5685 33.808 49.005 33.808V28.606C44.6955 28.606 41.202 32.0995 41.202 36.409H46.404Z" fill="#5DCBDC"/>
<path d="M75.0149 28.6059H90.6209" stroke="#5DCBDC" stroke-width="5.202" stroke-linecap="round" stroke-linejoin="round"/>
<path d="M82.8181 20.803V36.409" stroke="#5DCBDC" stroke-width="5.202" stroke-linecap="round" stroke-linejoin="round"/>
<path d="M7.80298 54.621V44.217C7.80298 38.471 12.461 33.813 18.207 33.813C23.9529 33.813 28.611 38.471 28.611 44.217C28.611 49.9629 23.9529 54.621 18.207 54.621H7.80298" stroke="#5DCBDC" stroke-width="5.202" stroke-linecap="round" stroke-linejoin="round"/>
<path d="M54.621 7.80298C39.4978 9.87155 26.7206 20.0534 21.3282 34.3332" stroke="#5DCBDC" stroke-width="5.202" stroke-linecap="round" stroke-linejoin="round"/>
<path d="M54.6209 7.80298C52.5523 22.9262 42.3705 35.7034 28.0907 41.0958" stroke="#5DCBDC" stroke-width="5.202" stroke-linecap="round" stroke-linejoin="round"/>
<path d="M27.5707 23.4089C32.6248 25.7417 36.6823 29.7992 39.0151 34.8533" stroke="#5DCBDC" stroke-width="5.202" stroke-linecap="round" stroke-linejoin="round"/>
</svg>
