<svg width="91" height="91" viewBox="0 0 91 91" fill="none" xmlns="http://www.w3.org/2000/svg">
<path d="M85.2219 23.4089L59.2119 13.0049L33.2019 23.4089L59.2119 33.8129L85.2219 23.4089V39.0149" stroke="#5DCBDC" stroke-width="5.202" stroke-linecap="round" stroke-linejoin="round"/>
<path d="M43.6061 27.5706V41.6159C43.6061 45.9254 50.5931 49.4189 59.2121 49.4189C67.831 49.4189 74.8181 45.9254 74.8181 41.6159V27.5706" stroke="#5DCBDC" stroke-width="5.202" stroke-linecap="round" stroke-linejoin="round"/>
<path d="M7.8031 56.6108C6.36661 56.6108 5.2021 57.7753 5.2021 59.2118C5.2021 60.6483 6.36661 61.8128 7.8031 61.8128V56.6108ZM10.4041 61.8128C11.8406 61.8128 13.0051 60.6483 13.0051 59.2118C13.0051 57.7753 11.8406 56.6108 10.4041 56.6108V61.8128ZM33.8131 35.803C33.8131 34.3665 32.6486 33.202 31.2121 33.202C29.7756 33.202 28.6111 34.3665 28.6111 35.803H33.8131ZM28.6111 38.404C28.6111 39.8405 29.7756 41.005 31.2121 41.005C32.6486 41.005 33.8131 39.8405 33.8131 38.404H28.6111ZM52.0201 56.6108C50.5836 56.6108 49.4191 57.7753 49.4191 59.2118C49.4191 60.6483 50.5836 61.8128 52.0201 61.8128V56.6108ZM54.6211 61.8128C56.0576 61.8128 57.2221 60.6483 57.2221 59.2118C57.2221 57.7753 56.0576 56.6108 54.6211 56.6108V61.8128ZM16.4049 40.7264C15.3891 39.7106 13.7423 39.7106 12.7265 40.7264C11.7108 41.7421 11.7108 43.389 12.7265 44.4048L16.4049 40.7264ZM14.5472 46.2254C15.563 47.2412 17.2098 47.2412 18.2256 46.2254C19.2413 45.2097 19.2413 43.5628 18.2256 42.5471L14.5472 46.2254ZM7.8031 61.8128H10.4041V56.6108H7.8031V61.8128ZM28.6111 35.803V38.404H33.8131V35.803H28.6111ZM52.0201 61.8128H54.6211V56.6108H52.0201V61.8128ZM12.7265 44.4048L14.5472 46.2254L18.2256 42.5471L16.4049 40.7264L12.7265 44.4048Z" fill="#5DCBDC"/>
<path d="M23.4089 69.6158C18.9307 66.2571 17.1041 60.4097 18.8743 55.0992C20.6444 49.7888 25.6141 46.2068 31.2119 46.2068C36.8096 46.2068 41.7793 49.7888 43.5495 55.0992C45.3197 60.4097 43.4931 66.2571 39.0149 69.6158C36.9553 71.6545 35.9895 74.552 36.4139 77.4188C36.4139 80.2917 34.0849 82.6208 31.2119 82.6208C28.3389 82.6208 26.0099 80.2917 26.0099 77.4188C26.4343 74.552 25.4685 71.6545 23.4089 69.6158" stroke="#5DCBDC" stroke-width="5.202" stroke-linecap="round" stroke-linejoin="round"/>
<path d="M25.2297 72.217H37.1943" stroke="#5DCBDC" stroke-width="5.202" stroke-linecap="round" stroke-linejoin="round"/>
</svg>
